<svg width="16" height="16" viewBox="0 0 16 16" fill="none" xmlns="http://www.w3.org/2000/svg">
<path fill-rule="evenodd" clip-rule="evenodd" d="M2.33594 6.8772C2.33594 3.81063 4.89852 1.33203 7.99823 1.33203C11.1067 1.33203 13.6693 3.81063 13.6693 6.8772C13.6693 8.42249 13.1073 9.85712 12.1823 11.0731C11.1618 12.4144 9.90404 13.583 8.4883 14.5003C8.16428 14.7123 7.87185 14.7283 7.51624 14.5003C6.09243 13.583 4.83466 12.4144 3.82294 11.0731C2.89726 9.85712 2.33594 8.42249 2.33594 6.8772ZM6.13281 7.05021C6.13281 8.07751 6.9711 8.88549 7.99896 8.88549C9.02749 8.88549 9.87384 8.07751 9.87384 7.05021C9.87384 6.0309 9.02749 5.18359 7.99896 5.18359C6.9711 5.18359 6.13281 6.0309 6.13281 7.05021Z" fill="#61696A"/>
</svg>
